<svg xmlns="http://www.w3.org/2000/svg" xmlns:xlink="http://www.w3.org/1999/xlink" width="340.382" height="355.975" viewBox="0 0 340.382 355.975">
  <defs>
    <clipPath id="clip-path">
      <path id="Path_8200" data-name="Path 8200" d="M0,0H340.382V355.975H0Z" transform="translate(13.761 453.2)" fill="#231f20"/>
    </clipPath>
  </defs>
  <g id="Background" transform="translate(-13.761 -453.2)" opacity="0.05" clip-path="url(#clip-path)">
    <g id="Background_Plume" data-name="Background Plume" transform="translate(-35.756 763.846) rotate(-45)">
      <path id="Path_7845" data-name="Path 7845" d="M27.61,41.407,48.185,30.466a6.854,6.854,0,0,0,4.047-4.279,6.5,6.5,0,0,0-1.2-5.44L38.478,4.682C36.143,1.981,31.339,0,26.742,0a13.1,13.1,0,0,0-4.89.88L3.343,9.511A6.387,6.387,0,0,0,.115,13.68a6.553,6.553,0,0,0,1.479,5.379L14.969,38.143A9.445,9.445,0,0,0,27.61,41.407" transform="translate(373.291 74.343)" fill="#fff" fill-rule="evenodd" opacity="0.8"/>
      <path id="Path_7848" data-name="Path 7848" d="M26.865,0a14.512,14.512,0,0,0-7.4,1.834L2.561,13.252A6.359,6.359,0,0,0,.006,17.873a6.566,6.566,0,0,0,2.3,5.086L18.5,39.708a9.374,9.374,0,0,0,7.164,3.35,9.167,9.167,0,0,0,5.844-2.091L50.094,26.92a6.8,6.8,0,0,0,3.325-4.854,6.568,6.568,0,0,0-2-5.208L36.511,2.983C34.36,1.2,30.667,0,26.865,0" transform="translate(294.265 61.884)" fill="#fff" fill-rule="evenodd" opacity="0.8"/>
      <path id="Path_7851" data-name="Path 7851" d="M26.889,0a9.723,9.723,0,0,0-5.453,1.614L3.367,15.257c-3.668,3.105-4.536,9.475-1.626,13.7L15.923,52.276c.807,1.491,2.188,3.472,4.438,3.472a5.717,5.717,0,0,0,3.888-1.871L44.934,36.065A10.908,10.908,0,0,0,47.721,22.03L34.713,3.484A10.117,10.117,0,0,0,26.889,0" transform="translate(330.165 97.326)" fill="#fff" fill-rule="evenodd" opacity="0.8"/>
      <path id="Path_7854" data-name="Path 7854" d="M33.758,1.675A14.512,14.512,0,0,0,26.606,0a15.653,15.653,0,0,0-9.854,3.191L1.8,17.1A6.47,6.47,0,0,0,.028,22.067,6.533,6.533,0,0,0,3.1,26.725L21.716,40.747a9.39,9.39,0,0,0,6.113,2.311,9.1,9.1,0,0,0,6.92-3.105L50.923,23.192a6.817,6.817,0,0,0,2.531-5.318,6.534,6.534,0,0,0-2.812-4.829Z" transform="translate(214.788 61.885)" fill="#fff" fill-rule="evenodd" opacity="0.8"/>
      <path id="Path_7857" data-name="Path 7857" d="M47.107,18.631,31.373,2.359A9.863,9.863,0,0,0,24.771,0a9.928,9.928,0,0,0-6.822,2.592L2.24,18.876c-3.142,3.631-3,10.061.55,13.79l17.653,20.82c2.873,3.778,6.052,3.509,8.472.281L46.557,32.923a10.91,10.91,0,0,0,.55-14.291" transform="translate(256.481 91.37)" fill="#fff" fill-rule="evenodd" opacity="0.8"/>
      <path id="Path_7860" data-name="Path 7860" d="M21.916,70.822l.208-.33L41.171,43.608c3.692-4.572,4.523-13.106,1.773-18.265L29.129,2.616A5.777,5.777,0,0,0,24.471,0a6.2,6.2,0,0,0-4.487,2.188L2.807,22.483c-3.3,4.4-3.814,12.959-.88,18.02l.2.367L16.671,70.333c1.186,2.849,3.631,3.093,5.245.489" transform="translate(292.322 130.429)" fill="#fff" fill-rule="evenodd"/>
      <path id="Path_7863" data-name="Path 7863" d="M52.287,13.668A6.6,6.6,0,0,0,48.741,9.34L30.281.746A13.1,13.1,0,0,0,25.672,0c-4.6,0-9.389,1.956-11.92,4.9L1.172,20.991a6.34,6.34,0,0,0-.978,5.171,6.537,6.537,0,0,0,3.741,4.12L24.523,41.224A9.125,9.125,0,0,0,37.274,38.4l13.35-19.084a6.836,6.836,0,0,0,1.663-5.648" transform="translate(136.821 74.362)" fill="#fff" fill-rule="evenodd" opacity="0.8"/>
      <path id="Path_7866" data-name="Path 7866" d="M22.325,0a10.172,10.172,0,0,0-8.008,3.753L1.346,22.3c-2.543,4.1-1.394,10.416,2.69,13.546l20.685,17.8c1.54,1.467,2.885,2.115,4.169,2.115,2.237,0,3.631-1.981,4.254-3.166L47.3,29.268a10.94,10.94,0,0,0-1.687-14.23L27.521,1.43A9.663,9.663,0,0,0,22.325,0" transform="translate(183.137 97.326)" fill="#fff" fill-rule="evenodd" opacity="0.8"/>
      <path id="Path_7869" data-name="Path 7869" d="M41.564,22.2,24.363,1.919A6.067,6.067,0,0,0,20.108,0a5.988,5.988,0,0,0-4.841,2.922L1.489,25.649C-1.078,30.515-.259,39.048,3.433,43.6l.257.33L22.627,70.748c1.614,2.628,4.206,2.286,5.391-.562l.171-.367,14.487-29.3c2.934-5.074,2.408-13.631-1.112-18.314" transform="translate(225.628 130.424)" fill="#fff" fill-rule="evenodd"/>
      <path id="Path_7872" data-name="Path 7872" d="M9.882,17.641C5.676,26.162-.559,41.322.04,45.112s0,0,3.729,9.316,9.915,31.945,9.915,31.945c3.276,12.042,8.7,12.054,12.054.024,0,0,6.528-23.436,9.9-31.823,2.127-5.33,2.567-5.171,3.35-8.387S33.6,26.162,29.381,17.641,22.462,0,19.76,0h-.281c-3.142,0-5.391,9.12-9.6,17.641" transform="translate(261.645 174.877)" fill="#fff" fill-rule="evenodd"/>
      <path id="Path_7875" data-name="Path 7875" d="M32.648,13.3a34.611,34.611,0,0,1-16.663,0L3.466,9.6c-4.621-1.357-4.621-3.545,0-4.9L15.985,1.009a34.916,34.916,0,0,1,16.663,0L45.179,4.7c4.609,1.357,4.609,3.545,0,4.9Z" transform="translate(257.449)" fill="#fff" fill-rule="evenodd" opacity="0.4"/>
      <path id="Path_7878" data-name="Path 7878" d="M31.834,14.3a34.688,34.688,0,0,1-16.565-1.736L3.178,7.592c-4.426-1.834-4.206-4.01.513-4.878L16.553.354A34.753,34.753,0,0,1,33.13,2.09L45.209,7.066c4.438,1.834,4.206,4.022-.513,4.878Z" transform="translate(349.132 7.535)" fill="#fff" fill-rule="evenodd" opacity="0.4"/>
      <path id="Path_7881" data-name="Path 7881" d="M29.99,16.18a34.764,34.764,0,0,1-16.089-4.3L2.727,5.055C-1.356,2.561-.794.433,4.011.323L17.067.005a34.744,34.744,0,0,1,16.1,4.3L44.33,11.131c4.083,2.494,3.521,4.609-1.271,4.731Z" transform="translate(439.476 28.559)" fill="#fff" fill-rule="evenodd" opacity="0.4"/>
      <path id="Path_7884" data-name="Path 7884" d="M27.432,19.837A34.571,34.571,0,0,1,12.2,13.064L2.235,4.6C-1.4,1.487-.516-.518,4.24.118L17.211,1.854A34.645,34.645,0,0,1,32.42,8.614L42.383,17.1c3.643,3.105,2.751,5.1-2,4.474Z" transform="translate(518.916 54.777)" fill="#fff" fill-rule="evenodd" opacity="0.4"/>
      <path id="Path_7887" data-name="Path 7887" d="M16.547,14.3a34.753,34.753,0,0,0,16.578-1.736L45.191,7.592c4.438-1.834,4.218-4.01-.5-4.878L31.829.354A34.7,34.7,0,0,0,15.263,2.09L3.172,7.066C-1.253,8.9-1.021,11.088,3.7,11.944Z" transform="translate(166.02 7.535)" fill="#fff" fill-rule="evenodd" opacity="0.4"/>
      <path id="Path_7890" data-name="Path 7890" d="M17.065,16.18a34.724,34.724,0,0,0,16.089-4.3L44.316,5.055c4.1-2.494,3.533-4.621-1.259-4.731L29.975.005a34.735,34.735,0,0,0-16.089,4.3L2.737,11.131c-4.1,2.494-3.533,4.609,1.271,4.731Z" transform="translate(77.011 28.559)" fill="#fff" fill-rule="evenodd" opacity="0.4"/>
      <path id="Path_7893" data-name="Path 7893" d="M17.2,19.837a34.648,34.648,0,0,0,15.221-6.773L42.374,4.6c3.655-3.117,2.751-5.122-2-4.487L27.422,1.854A34.567,34.567,0,0,0,12.2,8.614L2.25,17.1C-1.405,20.2-.513,22.2,4.243,21.573Z" transform="translate(0 54.777)" fill="#fff" fill-rule="evenodd" opacity="0.4"/>
      <path id="Path_7896" data-name="Path 7896" d="M34.789,33.253a14.491,14.491,0,0,1-14.243,0L2.954,22.091C-.983,19.6-.983,15.538,2.942,13.045l17.6-11.174a14.491,14.491,0,0,1,14.243,0L52.381,13.045c3.924,2.494,3.924,6.553-.012,9.047Z" transform="translate(253.519 32.478)" fill="#fff" fill-rule="evenodd" opacity="0.6"/>
      <path id="Path_7899" data-name="Path 7899" d="M36.528,22.982c-3.386,1.993-9.585,2.4-13.839.892L3.7,17.114c-4.254-1.5-4.939-4.352-1.553-6.345L17.359,1.807C20.745-.185,26.943-.6,31.186.915l19,6.748c4.254,1.516,4.939,4.352,1.54,6.369Z" transform="translate(209.844 15.158)" fill="#fff" fill-rule="evenodd" opacity="0.6"/>
      <path id="Path_7902" data-name="Path 7902" d="M37.583,21.129c-3.02,2.518-9.083,3.924-13.5,3.117L4.244,20.676c-4.438-.807-5.575-3.5-2.555-6.015L15.235,3.353c3.02-2.531,9.071-3.924,13.5-3.13l19.842,3.57c4.438.795,5.575,3.5,2.543,6.027Z" transform="translate(121.178 29.535)" fill="#fff" fill-rule="evenodd" opacity="0.6"/>
      <path id="Path_7905" data-name="Path 7905" d="M37.738,19.334c-2.616,2.946-8.374,5.245-12.886,5.122L4.7,23.906c-4.511-.122-6.039-2.616-3.435-5.575L12.957,5.116C15.561,2.17,21.331-.129,25.83.006l20.16.55c4.511.11,6.039,2.6,3.423,5.563Z" transform="translate(42.585 55.759)" fill="#fff" fill-rule="evenodd" opacity="0.6"/>
      <path id="Path_7908" data-name="Path 7908" d="M17.357,22.982c3.386,1.993,9.585,2.4,13.839.892l18.986-6.761c4.242-1.5,4.939-4.352,1.54-6.345l-15.2-8.961C33.128-.185,26.942-.6,22.688.915l-19,6.748c-4.242,1.516-4.927,4.352-1.528,6.369Z" transform="translate(297.862 15.158)" fill="#fff" fill-rule="evenodd" opacity="0.6"/>
      <path id="Path_7911" data-name="Path 7911" d="M15.232,21.129c3.02,2.518,9.071,3.924,13.509,3.117l19.83-3.57c4.438-.807,5.587-3.5,2.555-6.015L37.58,3.353C34.561.822,28.521-.571,24.1.223L4.229,3.793C-.2,4.588-1.333,7.289,1.7,9.82Z" transform="translate(387.594 29.535)" fill="#fff" fill-rule="evenodd" opacity="0.6"/>
      <path id="Path_7914" data-name="Path 7914" d="M12.957,19.334c2.616,2.946,8.374,5.245,12.873,5.122l20.16-.55c4.5-.122,6.039-2.616,3.423-5.575L37.738,5.116C35.134,2.17,29.351-.129,24.852.006L4.7.556C.193.666-1.335,3.16,1.269,6.118Z" transform="translate(468.308 55.759)" fill="#fff" fill-rule="evenodd" opacity="0.6"/>
      <path id="Path_7917" data-name="Path 7917" d="M37.372,31.381A14.433,14.433,0,0,1,23.46,34.34L3.912,27.078C-.441,25.452-1.3,21.491,2.029,18.227L16.919,3.654A14.465,14.465,0,0,1,30.856.7L50.392,7.958c4.365,1.626,5.208,5.575,1.87,8.839Z" transform="translate(171.165 38.648)" fill="#fff" fill-rule="evenodd" opacity="0.6"/>
      <path id="Path_7920" data-name="Path 7920" d="M38.131,30.183a14.466,14.466,0,0,1-13.546,4.389L4.4,29.389c-4.5-1.161-5.758-5-2.8-8.594L14.89,4.73A14.471,14.471,0,0,1,28.424.329l20.2,5.184c4.511,1.161,5.758,5.012,2.787,8.607Z" transform="translate(90.122 58.99)" fill="#fff" fill-rule="evenodd" opacity="0.6"/>
      <path id="Path_7923" data-name="Path 7923" d="M16.933,31.381A14.433,14.433,0,0,0,30.845,34.34l19.536-7.262c4.364-1.626,5.22-5.587,1.87-8.851L37.386,3.654A14.462,14.462,0,0,0,23.461.7L3.913,7.958C-.452,9.584-1.3,13.532,2.042,16.8Z" transform="translate(336.896 38.648)" fill="#fff" fill-rule="evenodd" opacity="0.6"/>
      <path id="Path_7926" data-name="Path 7926" d="M14.9,30.183A14.425,14.425,0,0,0,28.43,34.572l20.184-5.184c4.511-1.161,8.729-1.406,5.758-5L38.137,4.73A14.5,14.5,0,0,0,24.591.329L4.407,5.513c-4.523,1.161-5.758,5.012-2.8,8.607Z" transform="translate(419.22 58.99)" fill="#fff" fill-rule="evenodd" opacity="0.6"/>
    </g>
  </g>
</svg>
