<svg xmlns="http://www.w3.org/2000/svg" width="333" height="100" viewBox="0 0 333 100">
  <g id="RA_Logo" data-name="RA Logo" transform="translate(3677 8460)">
    <rect id="Rectangle_3089" data-name="Rectangle 3089" width="333" height="100" rx="8" transform="translate(-3677 -8460)" fill="none"/>
    <g id="Rite_aid_logo_2021" transform="translate(-3581 -8438.308)">
      <path id="Path_8628" data-name="Path 8628" d="M113.11,26.413H130.4V22.8H117.218v-5.4h11.207V13.872H117.218V3.622h12.641V.01H113.11Zm-16.325,0h4.072V3.62h7.832V.009H88.95V3.62h7.832V26.413Zm-16.442,0h4.072V.01H80.343Zm-19.5-10.329V3.62h2.326c5.158,0,7.329,2.291,7.329,6.251,0,3.922-2.094,6.213-7.329,6.213Zm8.569,2.174c3.452-1.514,5.274-4.309,5.274-8.387,0-6.058-4.072-9.863-11.362-9.863H56.727v26.4h4.11V19.618h2.481a21.412,21.412,0,0,0,2.211-.155l4.731,6.949h4.731Z" transform="translate(4.489 0.001)" fill="#003da6"/>
      <path id="Path_8629" data-name="Path 8629" d="M0,37.212C.007,27,.051,4.437.062,0h51.31c.011,4.439.055,27,.062,37.212a14.5,14.5,0,0,1-1.419,6.368c-3.6,7.41-12.2,15.258-24.3,19.35h0C13.621,58.838,5.019,50.99,1.416,43.58A14.545,14.545,0,0,1,0,37.212Z" transform="translate(0)" fill="#003da6"/>
      <path id="Path_8630" data-name="Path 8630" d="M35.036,24.873c1.616-2.808,3.153-5.652,3.671-6.27,1.045-1.248,5.45-3.21,5.283-4.412-.084-.608-1.208-1.774-2.3-2.775-1.173-.9-2.514-1.807-3.127-1.783-1.21.046-2.377,4.73-3.423,5.977-.945,1.127-8.6,6.894-10.408,9.262Z" transform="translate(1.958 0.762)" fill="#fff"/>
      <path id="Path_8631" data-name="Path 8631" d="M14.233,47.421a40.283,40.283,0,0,0,4.785,3.1H30.166a40.748,40.748,0,0,0,4.785-3.1Z" transform="translate(1.126 3.753)" fill="#fff"/>
      <path id="Path_8632" data-name="Path 8632" d="M44.478,38.927a8.9,8.9,0,0,0,.845-3.869c0-2.167-.006-4.859-.009-7.8H5.286c0,2.948-.007,5.645-.009,7.8a8.846,8.846,0,0,0,.845,3.869,27.089,27.089,0,0,0,6.028,7.764h26.3A27.078,27.078,0,0,0,44.478,38.927Z" transform="translate(0.418 2.157)" fill="#fff"/>
      <path id="Path_8633" data-name="Path 8633" d="M11.891,17.34c-2.452-2.455-6.708-1.46-6.708-1.46S4.189,20.143,6.641,22.6c2.479,2.483,6.672,1.423,6.672,1.423S14.371,19.821,11.891,17.34ZM18.8,10.366c0-3.511-3.713-5.731-3.713-5.731s-3.713,2.22-3.713,5.731c0,3.473,3.713,5.782,3.713,5.782S18.8,13.838,18.8,10.366ZM25,15.879s-4.256-1-6.708,1.46c-2.479,2.483-1.421,6.681-1.421,6.681s4.193,1.058,6.672-1.423C25.994,20.141,25,15.879,25,15.879Z" transform="translate(0.394 0.367)" fill="#8cc745"/>
      <path id="Path_8634" data-name="Path 8634" d="M94.925,52.439V33.258H97.8c6.864,0,10.082,3.961,10.082,9.591s-3.218,9.591-10.082,9.591Zm-4.11,3.612h7.252c8.493,0,14.076-5.281,14.076-13.2s-5.623-13.2-14.076-13.2H90.815ZM61.031,48.868l3.3-8.232a35.543,35.543,0,0,0,1.279-3.922,39.711,39.711,0,0,0,1.319,3.922l3.3,8.232Zm-6.864,7.183h3.955l1.512-3.727h12.06l1.512,3.727h4.266L65.917,29.376h-.465Z" transform="translate(4.287 2.325)" fill="#6ea101"/>
      <path id="Path_8635" data-name="Path 8635" d="M82.683,29.628H78.611v26.4h4.072Z" transform="translate(6.221 2.345)" fill="#6ea101"/>
      <path id="Path_8636" data-name="Path 8636" d="M38.62,52.376h-.686V52.06H39.66v.316h-.686v1.993h-.356V52.376Z" transform="translate(3.002 4.12)" fill="#003da6"/>
      <path id="Path_8637" data-name="Path 8637" d="M39.862,52.038H39.9l1.1,1.29,1.093-1.29h.036v2.333h-.343v-1.2c0-.13.013-.332.013-.332a2.577,2.577,0,0,1-.206.278l-.58.7h-.04l-.58-.7c-.088-.106-.2-.278-.2-.278s.013.2.013.332v1.2h-.343V52.038Z" transform="translate(3.154 4.118)" fill="#003da6"/>
    </g>
  </g>
</svg>
