<svg xmlns="http://www.w3.org/2000/svg" width="340" height="100" viewBox="0 0 340 100">
  <g id="SC_Logo" data-name="SC Logo" transform="translate(3677 8460)">
    <rect id="Rectangle_3090" data-name="Rectangle 3090" width="340" height="100" rx="8" transform="translate(-3677 -8460)" fill="none"/>
    <path id="path2" d="M214.759,3.094a2.422,2.422,0,0,1,0,3.413L201.084,20.255,214.761,34a2.426,2.426,0,0,1,0,3.42l-3.073,3.09L193.164,21.895a2.325,2.325,0,0,1,0-3.276L211.681,0Zm24.6,15.612a2.191,2.191,0,0,1,0,3.089l-18.61,18.711-3.214-3.229a2.228,2.228,0,0,1,0-3.139l13.812-13.886L217.657,6.491a2.4,2.4,0,0,1,0-3.383L220.748,0ZM185.8,31.8V32h-.576v1.512h-.233V32h-.576v-.2H185.8Zm.207,0h.331l.491,1.45.488-1.451h.329v1.716h-.221V32.5c0-.035,0-.093,0-.174s0-.168,0-.261l-.488,1.448h-.23l-.492-1.448v.053c0,.043,0,.106,0,.192l0,.19v1.013H186V31.8Zm-12.167-2.065c3.9,0,6.572-3.126,6.572-7.266,0-4.1-2.673-7.221-6.572-7.221-3.855,0-6.528,3.214-6.528,7.309,0,4.051,2.672,7.178,6.528,7.178Zm1.1,4.14a8.16,8.16,0,0,1-7.711-4.888v4.537h-4.381V3.534l4.381-.881V16a8.158,8.158,0,0,1,7.711-4.888c5.651,0,10.164,4.359,10.164,11.406,0,7-4.512,11.361-10.164,11.361Zm-34.813-9.468V11.46H144.5v13.3a4.907,4.907,0,0,0,9.815,0V11.46h4.381V24.406c0,6.033-3.725,9.424-9.288,9.424s-9.288-3.39-9.288-9.424Zm-3.071,9.424c-4.512.176-7.01-2.2-7.01-7.529V3.534l4.381-.881V26.3c0,2.113,1.139,3.082,2.716,3.082h1.139V33.7a5.8,5.8,0,0,1-1.225.132Zm-28.7-11.361c0-7,4.82-11.361,11.523-11.361a11.068,11.068,0,0,1,8.105,3.171l-2.673,3.3a7.575,7.575,0,0,0-5.388-2.333c-4.03,0-6.879,2.421-6.879,7.178s2.849,7.266,6.879,7.266a7.571,7.571,0,0,0,5.433-2.466l2.672,3.259a11.177,11.177,0,0,1-8.149,3.346c-6.66,0-11.523-4.359-11.523-11.361ZM82.323,31.5l1.972-4.007a11.883,11.883,0,0,0,6,2.245c2.454,0,3.418-1.189,3.418-2.466.044-1.5-1.183-2.07-3.768-2.906-4.337-1.321-6.791-2.862-6.791-6.913,0-3.7,2.805-6.341,7.887-6.341a12.036,12.036,0,0,1,6.966,2.2l-1.972,3.656A10.285,10.285,0,0,0,90.822,15.2c-1.884,0-3.023.749-3.023,2.2,0,1.189.832,1.982,3.593,2.818,4.689,1.41,7.01,3.171,7.01,6.87,0,4.183-3.373,6.737-8.061,6.737A14.445,14.445,0,0,1,82.323,31.5ZM79.164,5.119H83.9l-2.759,8.675H77.5ZM62.686,33.478H58.3V20.091c0-2.775-1.446-4.888-4.381-4.888-3.2,0-5.433,2.818-5.433,6.429V33.478H44.109V11.46h4.382v3.919a7.092,7.092,0,0,1,6.528-4.315,7.231,7.231,0,0,1,6.659,4.182,8.15,8.15,0,0,1,7.23-4.182c4.6,0,7.973,3.478,7.973,9.07V33.478H72.5V20.091c0-2.775-1.446-4.888-4.382-4.888-3.2,0-5.432,2.818-5.432,6.429ZM29,15.248c-3.9,0-6.572,3.126-6.572,7.266,0,4.1,2.673,7.221,6.572,7.221,3.856,0,6.529-3.214,6.529-7.309,0-4.051-2.673-7.178-6.529-7.178Zm6.616,13.739a8.157,8.157,0,0,1-7.71,4.888c-5.652,0-10.165-4.359-10.165-11.406,0-7,4.513-11.361,10.165-11.361A8.158,8.158,0,0,1,35.619,16V11.46H40V33.477H35.619ZM0,31.5,1.973,27.49a11.883,11.883,0,0,0,6,2.245c2.454,0,3.418-1.189,3.418-2.466.044-1.5-1.183-2.07-3.767-2.906C3.286,23.042.832,21.5.832,17.449c0-3.7,2.805-6.341,7.887-6.341a12.036,12.036,0,0,1,6.966,2.2l-1.972,3.656A10.285,10.285,0,0,0,8.5,15.2c-1.884,0-3.023.749-3.023,2.2,0,1.189.832,1.982,3.593,2.818,4.689,1.41,7.01,3.171,7.01,6.87,0,4.183-3.373,6.737-8.061,6.737A14.448,14.448,0,0,1,0,31.5Z" transform="translate(-3627 -8430)" fill="#0067a0" fill-rule="evenodd"/>
  </g>
</svg>
