<svg xmlns="http://www.w3.org/2000/svg" width="32" height="17" viewBox="0 0 32 17">
  <g id="Flag_of_the_United_States" transform="translate(0.001)">
    <path id="Subtraction_4" data-name="Subtraction 4" d="M32,17H0V15.645H32V17Zm0-2.587H0V13.058H32v1.355Zm0-2.587H0V10.471H32v1.355Zm0-2.711H12.825V7.884H32V9.116Zm0-2.587H12.825V5.174H32V6.529Zm0-2.587H12.825V2.587H32V3.942Zm0-2.587H12.825V0H32V1.355Z" transform="translate(-0.001)" fill="#86878a"/>
    <path id="Subtraction_3" data-name="Subtraction 3" d="M12.824,9.116H0V0H12.824V9.116ZM11.257,8.082l.3.223-.117.363.306-.225h0l.306.225L11.938,8.3l.3-.223h-.376l-.116-.361-.117.361Zm-2.136,0,.3.223-.118.363.306-.225h0l.306.225L9.8,8.3l.3-.223H9.731l-.117-.361L9.5,8.082Zm-2.136,0,.3.223-.117.363.306-.225h0l.306.225L7.667,8.3l.3-.223H7.6l-.117-.361-.117.361Zm-2.138,0,.3.223-.117.363.306-.225h0l.306.225L5.529,8.3l.3-.223H5.457L5.34,7.721l-.117.361Zm-2.136,0,.3.223L2.9,8.668,3.2,8.443h0l.306.225L3.394,8.3l.3-.223H3.321L3.2,7.721l-.117.361Zm-2.136,0,.3.223-.118.363.306-.225h0l.306.225L1.258,8.3l.3-.223H1.186l-.117-.361-.117.361Zm9.614-.916.3.223-.117.363.306-.225h0l.306.225-.117-.363.3-.223H10.8L10.683,6.8l-.116.361Zm-2.138,0,.3.223-.117.363.306-.225h0l.306.225-.117-.363.3-.223H8.662L8.545,6.8l-.117.361Zm-2.136,0,.3.223L6.1,7.752l.306-.225h0l.306.225L6.6,7.389l.3-.223H6.526L6.409,6.8l-.117.361Zm-2.136,0,.3.223-.117.363.306-.225h0l.306.225-.117-.363.3-.223H4.391L4.274,6.8l-.117.361Zm-2.138,0,.3.223-.117.363.306-.225h0l.306.225-.117-.363.3-.223H2.252L2.136,6.8l-.117.361Zm9.614-.916.3.223-.117.363.306-.225h0l.306.225-.118-.363.3-.223h-.376l-.116-.361-.117.361Zm-2.136,0,.3.223-.118.363.306-.225h0l.306.225L9.8,6.473l.3-.223H9.731l-.117-.361L9.5,6.25Zm-2.136,0,.3.223-.117.363.306-.225h0l.306.225-.117-.363.3-.223H7.6l-.117-.361-.117.361Zm-2.138,0,.3.223-.117.363.306-.225h0l.306.225-.117-.363.3-.223H5.457L5.34,5.889l-.117.361Zm-2.136,0,.3.223L2.9,6.836,3.2,6.611h0l.306.225-.117-.363.3-.223H3.321L3.2,5.889l-.117.361Zm-2.136,0,.3.223-.118.363.306-.225h0l.306.225-.117-.363.3-.223H1.186l-.117-.361L.952,6.25Zm9.614-.916.3.223-.117.363.306-.225h0l.306.225-.117-.363.3-.223H10.8l-.117-.361-.116.361Zm-2.138,0,.3.223-.117.363L8.545,5.7h0l.306.225-.117-.363.3-.223H8.662l-.117-.361-.117.361Zm-2.136,0,.3.223L6.1,5.92,6.409,5.7h0l.306.225L6.6,5.557l.3-.223H6.526l-.117-.361-.117.361Zm-2.136,0,.3.223-.117.363L4.274,5.7h0l.306.225-.117-.363.3-.223H4.391l-.117-.361-.117.361Zm-2.138,0,.3.223-.117.363L2.136,5.7h0l.306.225-.117-.363.3-.223H2.252l-.117-.361-.117.361Zm9.614-.916.3.223L11.443,5l.306-.225h0L12.056,5l-.118-.363.3-.223h-.376l-.116-.361-.117.361Zm-2.136,0,.3.223L9.308,5l.306-.225h0L9.92,5,9.8,4.641l.3-.223H9.731l-.117-.361L9.5,4.418Zm-2.136,0,.3.223L7.172,5l.306-.225h0L7.785,5l-.117-.363.3-.223H7.6l-.117-.361-.117.361Zm-2.138,0,.3.223L5.034,5l.306-.225h0L5.646,5l-.117-.363.3-.223H5.457L5.34,4.057l-.117.361Zm-2.136,0,.3.223L2.9,5,3.2,4.779h0L3.511,5l-.117-.363.3-.223H3.321L3.2,4.057l-.117.361Zm-2.136,0,.3.223L.763,5l.306-.225h0L1.375,5l-.117-.363.3-.223H1.186l-.117-.361-.117.361ZM10.19,3.5l.3.223-.117.363.306-.225h0l.306.225-.117-.363.3-.223H10.8l-.117-.361-.116.361Zm-2.138,0,.3.223-.117.363.306-.225h0l.306.225-.117-.363.3-.223H8.662L8.545,3.14,8.428,3.5Zm-2.136,0,.3.223L6.1,4.088l.306-.225h0l.306.225L6.6,3.725,6.9,3.5H6.526L6.409,3.14,6.293,3.5Zm-2.136,0,.3.223-.117.363.306-.225h0l.306.225-.117-.363.3-.223H4.391L4.274,3.14,4.157,3.5Zm-2.138,0,.3.223-.117.363.306-.225h0l.306.225-.117-.363.3-.223H2.252L2.136,3.14,2.019,3.5Zm9.614-.916.3.223-.117.363.306-.225h0l.306.225-.118-.363.3-.223h-.376l-.116-.361-.117.361Zm-2.136,0,.3.223-.118.363.306-.225h0l.306.225L9.8,2.809l.3-.223H9.731l-.117-.361L9.5,2.586Zm-2.136,0,.3.223-.117.363.306-.225h0l.306.225-.117-.363.3-.223H7.6l-.117-.361-.117.361Zm-2.138,0,.3.223-.117.363.306-.225h0l.306.225-.117-.363.3-.223H5.457L5.34,2.225l-.117.361Zm-2.136,0,.3.223L2.9,3.172,3.2,2.947h0l.306.225-.117-.363.3-.223H3.321L3.2,2.225l-.117.361Zm-2.138,0,.305.223L.76,3.172l.307-.225h0l.308.225-.118-.365.3-.221H1.186l-.117-.361-.118.361ZM10.19,1.67l.3.223-.117.363.306-.225h0l.306.225-.117-.363.3-.223H10.8l-.117-.361-.116.361Zm-2.138,0,.3.223-.117.363.306-.225h0l.306.225-.117-.363.3-.223H8.662l-.117-.361-.117.361Zm-2.136,0,.3.223L6.1,2.256l.306-.225h0l.306.225L6.6,1.893l.3-.223H6.526l-.117-.361-.117.361Zm-2.136,0,.3.223-.117.363.306-.225h0l.306.225-.117-.363.3-.223H4.391l-.117-.361-.117.361Zm-2.138,0,.306.224-.116.362.3-.224h0l.305.224-.117-.362.3-.224H2.252l-.117-.361L2.02,1.67ZM11.257.754l.3.223-.117.363.306-.225h0l.306.225L11.938.977l.3-.223h-.376L11.75.392l-.117.361Zm-2.136,0,.3.223-.118.363.306-.225h0l.306.225L9.8.977l.3-.223H9.731L9.614.392,9.5.754Zm-2.136,0,.3.223-.117.363.306-.225h0l.306.225L7.667.977l.3-.223H7.6L7.479.392,7.362.754Zm-2.138,0,.3.223-.117.363.306-.225h0l.306.225L5.529.977l.3-.223H5.457L5.34.392,5.224.754Zm-2.136,0,.3.223L2.9,1.34,3.2,1.115h0l.306.225L3.394.977,3.7.754H3.321L3.2.392,3.088.754ZM.573.754.88.978.763,1.34l.305-.225h0l.307.225L1.257.976l.3-.222H1.186L1.069.392.952.754Z" transform="translate(-0.001 0)" fill="#86878a"/>
  </g>
</svg>
